HIERARCHY
ROOT joint_Root
{
	OFFSET 0.0 0.0 0.0
	CHANNELS 6 Xposition Yposition Zposition Zrotation Xrotation Yrotation 
	JOINT Hips
	{
		OFFSET -0.726466 93.3139 -2.00062
		CHANNELS 6 Xposition Yposition Zposition Zrotation Xrotation Yrotation 
		JOINT Spine
		{
			OFFSET 15.7357 0.0 0.0
			CHANNELS 6 Xposition Yposition Zposition Zrotation Xrotation Yrotation 
			JOINT Chest
			{
				OFFSET 8.98455 -0.406207 0.0
				CHANNELS 6 Xposition Yposition Zposition Zrotation Xrotation Yrotation 
				JOINT Neck
				{
					OFFSET 16.3773 0.0 0.0
					CHANNELS 6 Xposition Yposition Zposition Zrotation Xrotation Yrotation 
					JOINT Head
					{
						OFFSET 6.45672 0.0 0.0
						CHANNELS 6 Xposition Yposition Zposition Zrotation Xrotation Yrotation 
						End Site
						{
							OFFSET 0.0 0.0 0.0
						}
					}
				}
				JOINT Shoulder_L
				{
					OFFSET 12.9942 -0.242716 4.98039
					CHANNELS 6 Xposition Yposition Zposition Zrotation Xrotation Yrotation 
					JOINT UpperArm_L
					{
						OFFSET 5.34809 0.0 0.0
						CHANNELS 6 Xposition Yposition Zposition Zrotation Xrotation Yrotation 
						JOINT LowerArm_L
						{
							OFFSET 24.3286 1.87007e-05 0.0
							CHANNELS 6 Xposition Yposition Zposition Zrotation Xrotation Yrotation 
							JOINT Hand_L
							{
								OFFSET 22.2916 0.0 0.0
								CHANNELS 6 Xposition Yposition Zposition Zrotation Xrotation Yrotation 
								End Site
								{
									OFFSET 0.0 0.0 0.0
								}
							}
						}
					}
				}
				JOINT Shoulder_R
				{
					OFFSET 12.9945 -0.242716 -4.98039
					CHANNELS 6 Xposition Yposition Zposition Zrotation Xrotation Yrotation 
					JOINT UpperArm_R
					{
						OFFSET -5.34813 0.0 0.0
						CHANNELS 6 Xposition Yposition Zposition Zrotation Xrotation Yrotation 
						JOINT LowerArm_R
						{
							OFFSET -24.3289 0.000322201 0.0
							CHANNELS 6 Xposition Yposition Zposition Zrotation Xrotation Yrotation 
							JOINT Hand_R
							{
								OFFSET -22.2915 -0.000108084 0.0
								CHANNELS 6 Xposition Yposition Zposition Zrotation Xrotation Yrotation 
								End Site
								{
									OFFSET 0.0 0.0 0.0
								}
							}
						}
					}
				}
			}
		}
		JOINT UpperLeg_L
		{
			OFFSET -2.19248 -6.46944 0.0
			CHANNELS 6 Xposition Yposition Zposition Zrotation Xrotation Yrotation 
			JOINT LowerLeg_L
			{
				OFFSET 39.0811 0.0 -1.23785e-05
				CHANNELS 6 Xposition Yposition Zposition Zrotation Xrotation Yrotation 
				JOINT Foot_L
				{
					OFFSET 40.9854 0.0 -1.26872e-05
					CHANNELS 6 Xposition Yposition Zposition Zrotation Xrotation Yrotation 
					JOINT Toes_L
					{
						OFFSET 11.7543 0.0 0.0
						CHANNELS 6 Xposition Yposition Zposition Zrotation Xrotation Yrotation 
						End Site
						{
							OFFSET 0.0 0.0 0.0
						}
					}
				}
			}
		}
		JOINT UpperLeg_R
		{
			OFFSET -2.19251 6.46944 0.0
			CHANNELS 6 Xposition Yposition Zposition Zrotation Xrotation Yrotation 
			JOINT LowerLeg_R
			{
				OFFSET -39.0811 -0.00228153 -0.0401928
				CHANNELS 6 Xposition Yposition Zposition Zrotation Xrotation Yrotation 
				JOINT Foot_R
				{
					OFFSET -40.9854 0.0 0.0
					CHANNELS 6 Xposition Yposition Zposition Zrotation Xrotation Yrotation 
					JOINT Toes_R
					{
						OFFSET -11.7543 0.0 0.0
						CHANNELS 6 Xposition Yposition Zposition Zrotation Xrotation Yrotation 
						End Site
						{
							OFFSET 0.0 0.0 0.0
						}
					}
				}
			}
		}
	}
}
MOTION
Frames:	5
Frame Time:	0.0333333
0.000000 0.000000 0.000000 0.000000 0.000000 -0.000000 -0.884110 92.141200 -3.147560 87.926700 -1.613530 6.413950 15.735700 0.000005 -0.000001 84.594700 83.093000 -84.255200 8.984550 -0.406207 -0.000000 5.991700 -1.303080 0.746377 16.377300 -0.000001 -0.000001 1.901980 -1.264690 1.074730 6.456720 -0.000001 -0.000000 2.427070 -0.237340 0.216866 12.994200 -0.242716 4.980390 -90.003800 0.013194 -73.752100 5.348090 -0.000007 -0.000001 -64.211300 37.306400 -16.709200 24.328600 0.000019 0.000005 2.885870 4.154470 -34.831700 22.291600 -0.000001 0.000005 6.853120 5.631390 -13.441900 12.994500 -0.242716 -4.980390 88.354300 5.757410 -74.018500 -5.348130 -0.000001 -0.000004 -63.364100 38.593700 -18.016000 -24.328900 0.000322 -0.000009 -1.270130 -2.175720 -30.250000 -22.291500 -0.000108 -0.000004 11.240100 5.543830 -8.418350 -2.192480 -6.469440 -0.000000 -169.543000 -20.586800 -2.428820 39.081100 -0.000007 -0.000012 -0.133219 0.303061 23.729400 40.985400 -0.000006 -0.000013 -4.582960 0.540423 -62.654900 11.754300 -0.000000 0.000003 -0.000150 -0.001451 -16.632700 -2.192510 6.469440 -0.000001 173.931000 24.282300 179.893000 -39.081100 -0.002282 -0.040193 0.021512 -0.046393 21.412900 -40.985400 0.000008 0.000006 -0.131792 4.885650 -62.824200 -11.754300 -0.000006 -0.000006 -0.003691 -0.048188 -18.533100
0.000000 0.000000 0.000000 0.000000 0.000000 -0.000000 -0.883596 92.162500 -3.169630 87.919700 -1.592440 6.167850 15.735700 0.000005 -0.000001 84.446500 83.278200 -84.107100 8.984550 -0.406207 -0.000000 5.619650 -1.304240 0.742037 16.377300 -0.000001 -0.000001 1.706370 -1.197320 1.066190 6.456720 -0.000001 -0.000000 2.426980 -0.227316 0.159754 12.994200 -0.242716 4.980390 -89.952900 -0.156569 -73.255100 5.348090 -0.000007 -0.000001 -63.814000 31.836800 -15.519900 24.328600 0.000019 0.000005 2.748060 4.031190 -34.323700 22.291600 -0.000001 0.000005 7.777970 5.631580 -13.455800 12.994500 -0.242716 -4.980390 88.408900 5.383490 -73.508000 -5.348130 -0.000001 -0.000004 -62.916500 33.369500 -17.490400 -24.328900 0.000322 -0.000009 -0.244141 -0.447594 -28.484100 -22.291500 -0.000108 -0.000004 13.227100 5.541550 -8.316330 -2.192480 -6.469440 -0.000000 -169.630000 -20.627400 -2.648040 39.081100 -0.000007 -0.000012 -0.132830 0.304069 23.597800 40.985400 -0.000006 -0.000013 -4.575730 0.561353 -62.565700 11.754300 -0.000000 0.000003 -0.000160 -0.001533 -16.635700 -2.192510 6.469440 -0.000001 174.057000 24.406600 179.669000 -39.081100 -0.002282 -0.040193 0.023491 -0.051777 21.286000 -40.985400 0.000008 0.000006 -0.060426 4.931960 -62.747100 -11.754300 -0.000006 -0.000006 -0.003743 -0.048742 -18.555700
0.000000 0.000000 0.000000 0.000000 0.000000 -0.000000 -0.891578 92.175900 -3.179380 87.935300 -1.593970 5.982750 15.735700 0.000005 -0.000001 84.410600 83.517400 -84.101100 8.984550 -0.406207 -0.000000 5.142100 -1.267230 0.675079 16.377300 -0.000001 -0.000001 1.602150 -1.135330 1.064700 6.456720 -0.000001 -0.000000 2.407800 -0.294595 0.247385 12.994200 -0.242716 4.980390 -89.899100 -0.325109 -72.751600 5.348090 -0.000007 -0.000001 -60.950700 26.402300 -15.568700 24.328600 0.000019 0.000005 2.795140 4.277620 -33.207100 22.291600 -0.000001 0.000005 9.089380 5.626120 -13.052500 12.994500 -0.242716 -4.980390 88.468000 5.040790 -73.070300 -5.348130 -0.000001 -0.000004 -60.778400 27.114300 -17.726400 -24.328900 0.000322 -0.000009 -0.215226 -0.440267 -25.945100 -22.291500 -0.000108 -0.000004 13.500800 5.540580 -8.268520 -2.192480 -6.469440 -0.000000 -169.724000 -20.646800 -2.804010 39.081100 -0.000007 -0.000012 -0.130122 0.299213 23.503500 40.985400 -0.000006 -0.000013 -4.579590 0.515251 -62.514200 11.754300 -0.000000 0.000003 -0.000148 -0.001435 -16.632100 -2.192510 6.469440 -0.000001 174.103000 24.455500 179.521000 -39.081100 -0.002282 -0.040193 0.020135 -0.043419 21.170400 -40.985400 0.000008 0.000006 -0.170898 5.010840 -62.667700 -11.754300 -0.000006 -0.000006 -0.003740 -0.048713 -18.554500
0.000000 0.000000 0.000000 0.000000 0.000000 -0.000000 -0.877443 92.179400 -3.141300 87.934000 -1.611500 5.937390 15.735700 0.000005 -0.000001 84.451400 83.759300 -84.178400 8.984550 -0.406207 -0.000000 4.660690 -1.212040 0.594816 16.377300 -0.000001 -0.000001 1.404120 -1.093730 1.109690 6.456720 -0.000001 -0.000000 2.422620 -0.421049 0.461554 12.994200 -0.242716 4.980390 -89.783600 -0.680884 -72.369800 5.348090 -0.000007 -0.000001 -56.796200 20.167500 -16.280000 24.328600 0.000019 0.000005 2.631410 4.341000 -31.265400 22.291600 -0.000001 0.000005 10.050900 5.622830 -12.817200 12.994500 -0.242716 -4.980390 88.605700 4.507040 -72.789500 -5.348130 -0.000001 -0.000004 -57.095200 20.251400 -18.909300 -24.328900 0.000322 -0.000009 -0.030752 -0.070796 -22.469200 -22.291500 -0.000108 -0.000004 12.632400 5.533610 -7.953370 -2.192480 -6.469440 -0.000000 -169.738000 -20.686400 -2.814900 39.081100 -0.000007 -0.000012 -0.130123 0.299521 23.482000 40.985400 -0.000006 -0.000013 -4.574910 0.521963 -62.525300 11.754300 -0.000000 0.000003 -0.000152 -0.001472 -16.633500 -2.192510 6.469440 -0.000001 174.090000 24.484200 179.543000 -39.081100 -0.002282 -0.040193 0.017896 -0.037782 21.096500 -40.985400 0.000008 0.000006 -0.278198 5.055140 -62.641400 -11.754300 -0.000006 -0.000006 -0.003829 -0.049652 -18.592700
0.000000 0.000000 0.000000 0.000000 0.000000 -0.000000 -0.869781 92.173900 -3.081930 87.928600 -1.655830 5.879680 15.735700 0.000005 -0.000001 84.573800 83.999500 -84.336900 8.984550 -0.406207 -0.000000 4.184270 -1.140490 0.514926 16.377300 -0.000001 -0.000001 0.932324 -1.013790 1.158580 6.456720 -0.000001 -0.000000 2.476150 -0.476932 0.760629 12.994200 -0.242716 4.980390 -89.574500 -1.317030 -72.096400 5.348090 -0.000007 -0.000001 -52.920700 11.532200 -17.015800 24.328600 0.000019 0.000005 2.409340 4.291110 -29.348500 22.291600 -0.000001 0.000005 9.941520 5.618210 -12.495200 12.994500 -0.242716 -4.980390 88.838300 3.719670 -72.641300 -5.348130 -0.000001 -0.000004 -52.664900 12.351000 -20.623600 -24.328900 0.000322 -0.000009 0.323292 0.960715 -18.695800 -22.291500 -0.000108 -0.000004 12.152100 5.536290 -8.075110 -2.192480 -6.469440 -0.000000 -169.742000 -20.695400 -2.835670 39.081100 -0.000007 -0.000012 -0.132629 0.304883 23.509900 40.985400 -0.000006 -0.000013 -4.590100 0.499908 -62.586800 11.754300 -0.000000 0.000003 -0.000155 -0.001495 -16.634400 -2.192510 6.469440 -0.000001 174.084000 24.417700 179.536000 -39.081100 -0.002282 -0.040193 0.014807 -0.029821 21.068300 -40.985400 0.000008 0.000006 -0.405953 5.084450 -62.648100 -11.754300 -0.000006 -0.000006 -0.003710 -0.048394 -18.541500
